<svg xmlns="http://www.w3.org/2000/svg" version="1.1" xmlns:xlink="http://www.w3.org/1999/xlink" width="26.16" height="27.54"><svg id="SvgjsSvg1001" xmlns="http://www.w3.org/2000/svg" viewBox="0 0 26.16 27.54"><path d="m11.22,7.22L13.88.28c.14-.37-.12-.26-.6-.28h-2.45c-.19,0-.36.18-.44.36l-2.63,6.76c-.11.28-.04.48.18.48h2.79c.26,0,.34-.04.49-.38Z" fill="#db1e1e" stroke-width="0"></path><path d="m3.87,26.13l6.8-17.56c.09-.27-.07-.27-.44-.27h-2.52c-.19,0-.47.17-.54.35L.02,27.12s-.03.1-.02.15c0,.05.02.1.05.14.03.04.07.08.11.1.04.02.09.04.14.04h1.43c.91,0,1.79-.51,2.12-1.41Z" fill="#db1e1e" stroke-width="0"></path><path d="m25.94,27.52h-4.96c-.47,0-.92-.14-1.31-.4-.39-.26-.68-.64-.85-1.07l-3.34-8.58h-2.44c-.16,0-.34-.11-.42-.33l-1.03-2.59c-.03-.19.14-.19.23-.19h12.66s.09.01.13.04c.04.03.07.06.09.11l1.02,2.64s.02.07.01.11c0,.04-.02.07-.04.1-.02.03-.05.06-.08.07-.03.02-.07.03-.11.03h-3.12l3.77,9.74s.02.07.01.11c0,.04-.02.07-.04.1-.02.03-.05.06-.08.07-.03.02-.07.03-.11.03h0Z" fill="#db1e1e" stroke-width="0"></path><path d="m14.69.28c.19-.37.78-.37.97.11l5.18,13.09s.01.04,0,.07c0,.02-.01.04-.02.06-.01.02-.03.03-.05.04-.02.01-.04.02-.06.02h-6.61s-.09-.01-.13-.04-.07-.06-.09-.11l-2.13-5.54c-.02-.05-.02-.05,0-.11" fill="#db1e1e" stroke-width="0"></path><path d="m15.7,27.28c.03.08.06.27-.06.27h-2.38c-.24,0-.47-.07-.67-.21-.2-.14-.35-.33-.44-.55l-1.71-4.4h-4.15s-.04,0-.06-.01c-.02,0-.03-.02-.04-.04s-.02-.03-.02-.05c0-.02,0-.04,0-.06l.52-1.35s.03-.04.05-.05c.02-.01.05-.02.07-.02h6.3s.05,0,.07.02c.02.01.03.03.04.05" fill="#db1e1e" stroke-width="0"></path><path d="m9.86,12.78c.04-.1.22-.1.26,0l2.75,7.18s-.02.15-.07.15h-3.15s-.05,0-.07-.02c-.02-.01-.03-.03-.04-.05l-1.23-3.17s-.01-.06,0-.09" fill="#db1e1e" stroke-width="0"></path></svg><style>@media (prefers-color-scheme: light) { :root { filter: none; } }
@media (prefers-color-scheme: dark) { :root { filter: none; } }
</style></svg>