<svg width="176" height="45" viewBox="0 0 176 45" fill="none" xmlns="http://www.w3.org/2000/svg">
<path d="M13.7614 15.7282L16.4211 8.79248C16.5651 8.42221 16.3016 8.52761 15.8182 8.51341H13.3632C13.1728 8.51341 12.9982 8.69527 12.9267 8.87276L10.2965 15.6288C10.1907 15.9095 10.2611 16.105 10.4793 16.105H13.2699C13.5334 16.105 13.6147 16.0678 13.7614 15.7282Z" fill="#DB1E1E"/>
<path d="M6.41053 34.6391L13.2088 17.0771C13.2994 16.804 13.1412 16.804 12.7724 16.804L10.2562 16.8095C10.0658 16.8095 9.78595 16.9777 9.71612 17.1546L2.56428 35.6292C2.54591 35.6762 2.53927 35.7269 2.54493 35.7771C2.55059 35.8272 2.56838 35.8752 2.59676 35.9169C2.62513 35.9586 2.66324 35.9927 2.70778 36.0163C2.75232 36.04 2.80194 36.0523 2.85234 36.0524H4.28664C5.20155 36.0524 6.0761 35.5456 6.41053 34.6391Z" fill="#DB1E1E"/>
<path d="M28.4784 36.0328H23.5137C23.0476 36.0328 22.5923 35.8921 22.2074 35.629C21.8224 35.366 21.5257 34.9928 21.356 34.5582L18.0177 25.9788H15.573C15.4093 25.9788 15.232 25.8695 15.154 25.6511L14.1212 23.0641C14.089 22.8708 14.2576 22.8741 14.3531 22.8741H27.0179C27.065 22.8737 27.1111 22.8876 27.15 22.914C27.189 22.9405 27.219 22.9782 27.2361 23.0221L28.258 25.662C28.2716 25.6973 28.2763 25.7354 28.2719 25.773C28.2674 25.8106 28.2538 25.8465 28.2323 25.8777C28.2108 25.9088 28.182 25.9342 28.1484 25.9516C28.1149 25.969 28.0775 25.978 28.0397 25.9777H24.9213L28.6917 35.716C28.7053 35.7513 28.7101 35.7894 28.7056 35.827C28.7011 35.8646 28.6875 35.9005 28.666 35.9317C28.6445 35.9628 28.6157 35.9882 28.5821 36.0056C28.5486 36.023 28.5113 36.032 28.4734 36.0317L28.4784 36.0328Z" fill="#DB1E1E"/>
<path d="M17.2288 8.78811C17.4187 8.41565 18.0133 8.41565 18.201 8.89733L23.3768 21.9888C23.3849 22.0099 23.3878 22.0327 23.3852 22.0552C23.3826 22.0777 23.3746 22.0992 23.3618 22.1178C23.349 22.1365 23.3318 22.1518 23.3118 22.1623C23.2918 22.1729 23.2696 22.1784 23.2469 22.1783H16.639C16.5919 22.1788 16.5458 22.1649 16.5068 22.1385C16.4678 22.1121 16.4378 22.0743 16.4208 22.0303L14.2931 16.4894C14.2718 16.4348 14.2724 16.4387 14.2931 16.384" fill="#DB1E1E"/>
<path d="M18.2451 35.7848C18.2757 35.8629 18.3024 36.0524 18.1873 36.0524H15.8032C15.564 36.0524 15.3304 35.9801 15.133 35.845C14.9355 35.7098 14.7835 35.5181 14.6968 35.295L12.9837 30.8949H8.8341C8.81416 30.8944 8.79461 30.8893 8.777 30.8799C8.75939 30.8705 8.74421 30.8572 8.73266 30.8409C8.72111 30.8246 8.71352 30.8059 8.71048 30.7861C8.70744 30.7664 8.70905 30.7462 8.71516 30.7272L9.23945 29.3729C9.25029 29.3509 9.26733 29.3325 9.28846 29.3201C9.3096 29.3077 9.33391 29.3017 9.35839 29.303H15.657C15.6806 29.3032 15.7037 29.3106 15.7232 29.3242C15.7426 29.3377 15.7576 29.3568 15.7661 29.3789" fill="#DB1E1E"/>
<path d="M12.4039 21.2882C12.4432 21.1866 12.6281 21.1866 12.6674 21.2882L15.4138 28.4729C15.4324 28.5198 15.3974 28.6242 15.3478 28.6242H12.201C12.1774 28.6238 12.1544 28.6164 12.135 28.603C12.1156 28.5896 12.1006 28.5707 12.0918 28.5488L10.8578 25.3813C10.8469 25.3536 10.8469 25.3228 10.8578 25.295" fill="#DB1E1E"/>
<path d="M38.0703 28.3538L42.7851 16.2082H45.6804L50.3778 28.3538H47.6216L46.5986 25.6129H41.7976L40.7927 28.3544L38.0703 28.3538ZM42.5603 23.4087H45.8337L44.2243 18.8629H44.1698L42.5603 23.4087Z" fill="white"/>
<path d="M51.1562 26.5669L52.7859 24.9706C53.3402 25.5604 54.3134 26.3064 55.6457 26.3064C56.9458 26.3064 57.6043 25.6123 57.6043 24.9013C57.6043 22.7496 51.6418 23.7905 51.6418 19.5045C51.6418 17.4577 53.4422 15.9477 55.9578 15.9477C57.9857 15.9477 59.4767 16.9198 60.0659 17.6658L58.4363 19.2621C58.0206 18.8454 57.1711 18.2381 56.1313 18.2381C54.9354 18.2381 54.3631 18.8454 54.3631 19.4876C54.3631 21.6393 60.3431 20.5979 60.3431 24.8838C60.3431 26.8962 58.6272 28.6143 55.8367 28.6143C53.4793 28.6165 51.8497 27.4866 51.1562 26.5669Z" fill="white"/>
<path d="M62.6309 28.3538V16.2082H65.231V28.3538H62.6309Z" fill="white"/>
<path d="M66.9629 28.3538L71.6777 16.2082H74.5725L79.2698 28.3538H76.5136L75.4912 25.6129H70.6902L69.6847 28.3544L66.9629 28.3538ZM71.4524 23.4087H74.7258L73.1136 18.8629H73.0591L71.4524 23.4087Z" fill="white"/>
<path d="M82.5625 28.3538L87.2773 16.2082H90.1721L94.87 28.3538H92.1138L91.0908 25.6129H86.2898L85.2849 28.3544L82.5625 28.3538ZM87.052 23.4087H90.3254L88.7132 18.8629H88.6587L87.052 23.4087Z" fill="white"/>
<path d="M96.6016 28.3538V16.2082H99.2017V25.9247H104.803V28.3538H96.6016Z" fill="white"/>
<path d="M106.707 28.3538V16.2082H109.307V25.9247H114.906V28.3538H106.707Z" fill="white"/>
<path d="M116.811 28.3538V16.2082H119.41V28.3538H116.811Z" fill="white"/>
<path d="M121.143 28.3538L125.857 16.2082H128.752L133.449 28.3538H130.693L129.671 25.6129H124.87L123.864 28.3544L121.143 28.3538ZM125.632 23.4087H128.905L127.294 18.8629H127.242L125.632 23.4087Z" fill="white"/>
<path d="M135.182 28.3538V16.2082H137.487L143.398 24.0177H143.467V16.2082H146.016V28.3538H143.727L137.799 20.5285H137.745V28.3538H135.182Z" fill="white"/>
<path d="M148.406 22.2816C148.406 18.7591 151.214 15.9466 154.993 15.9466C157.576 15.9466 159.309 17.248 160.193 18.2889L158.443 19.8508C157.733 19.1408 156.727 18.3217 154.993 18.3217C152.756 18.3217 151.041 20.0567 151.041 22.2777C151.041 24.4813 152.757 26.2169 154.993 26.2169C156.727 26.2169 157.767 25.4184 158.512 24.655L160.28 26.2169C159.344 27.3091 157.576 28.611 154.993 28.611C151.214 28.6165 148.406 25.786 148.406 22.2816Z" fill="white"/>
<path d="M162.221 28.3538V16.2082H171.147V18.5505H164.819V21.0146H169.759V23.27H164.821V26.0115H171.321V28.3538H162.221Z" fill="white"/>
</svg>
